# xmcd
#
# Track frame offsets: 
#        150
#        17078
#        36660
#        54907
#        74483
#        89324
#        103385
#        121158
#        137389
#        154762
#        174698
#
# Disc length: 2509 seconds
#
# Revision: 0
# Processed by: cddbd v1.5.2PL0 Copyright (c) Steve Scherf et al.
# Submitted via: ExactAudioCopy v0.99pb5
#
DISCID=9509cb0b
DTITLE=Anita Lipnicka and John Porter - Goodbye
DYEAR=2008
DGENRE=Ballad
TTITLE0=Run For Your Love
TTITLE1=Down By The Lake
TTITLE2=Lonesome Traveller
TTITLE3=Good To See You
TTITLE4=Old Time Radio
TTITLE5=Lover Turn Around
TTITLE6=Secret Wish
TTITLE7=You're Not The Only One
TTITLE8=How You Doin' Today
TTITLE9=Runner Run
TTITLE10=Stone Cold Morning
EXTD=
EXTT0=
EXTT1=
EXTT2=
EXTT3=
EXTT4=
EXTT5=
EXTT6=
EXTT7=
EXTT8=
EXTT9=
EXTT10=
PLAYORDER=
